<svg width="81" height="25" viewBox="0 0 81 25" fill="none" xmlns="http://www.w3.org/2000/svg">
<path d="M0.758523 0.272727H3.03409L5.4375 6.13636H5.53977L7.94318 0.272727H10.2188V9H8.42898V3.3196H8.35653L6.09801 8.95739H4.87926L2.62074 3.2983H2.5483V9H0.758523V0.272727ZM13.2433 9H11.266L14.2788 0.272727H16.6566L19.6651 9H17.6879L15.5018 2.26705H15.4336L13.2433 9ZM13.1197 5.5696H17.7901V7.00994H13.1197V5.5696ZM19.3168 1.79403V0.272727H26.4844V1.79403H23.8125V9H21.9886V1.79403H19.3168ZM27.6648 9V0.272727H33.5455V1.79403H29.5099V3.87358H33.2429V5.39489H29.5099V7.47869H33.5625V9H27.6648ZM40.4031 0.272727H42.2482V5.94034C42.2482 6.5767 42.0962 7.13352 41.7923 7.6108C41.4911 8.08807 41.0692 8.46023 40.5266 8.72727C39.984 8.99148 39.3519 9.12358 38.6303 9.12358C37.9059 9.12358 37.2724 8.99148 36.7298 8.72727C36.1871 8.46023 35.7653 8.08807 35.4641 7.6108C35.163 7.13352 35.0124 6.5767 35.0124 5.94034V0.272727H36.8576V5.78267C36.8576 6.11506 36.93 6.41051 37.0749 6.66903C37.2227 6.92756 37.43 7.13068 37.6971 7.27841C37.9641 7.42614 38.2752 7.5 38.6303 7.5C38.9883 7.5 39.2994 7.42614 39.5636 7.27841C39.8306 7.13068 40.0366 6.92756 40.1815 6.66903C40.3292 6.41051 40.4031 6.11506 40.4031 5.78267V0.272727ZM48.5007 2.78267C48.4666 2.43892 48.3203 2.17187 48.0618 1.98153C47.8033 1.79119 47.4524 1.69602 47.0092 1.69602C46.7081 1.69602 46.4538 1.73864 46.2464 1.82386C46.0391 1.90625 45.88 2.02131 45.7692 2.16903C45.6612 2.31676 45.6072 2.48438 45.6072 2.67188C45.6016 2.82812 45.6342 2.96449 45.7053 3.08097C45.7791 3.19744 45.88 3.2983 46.0078 3.38352C46.1357 3.46591 46.2834 3.53835 46.451 3.60085C46.6186 3.66051 46.7976 3.71165 46.9879 3.75426L47.772 3.94176C48.1527 4.02699 48.5021 4.14062 48.8203 4.28267C49.1385 4.42472 49.4141 4.59943 49.647 4.80682C49.88 5.0142 50.0604 5.25852 50.1882 5.53977C50.3189 5.82102 50.3857 6.14347 50.3885 6.5071C50.3857 7.04119 50.2493 7.50426 49.9794 7.89631C49.7124 8.28551 49.326 8.58807 48.8203 8.80398C48.3175 9.01705 47.7109 9.12358 47.0007 9.12358C46.2962 9.12358 45.6825 9.01562 45.1598 8.79972C44.6399 8.58381 44.2337 8.2642 43.9411 7.84091C43.6513 7.41477 43.4993 6.88778 43.4851 6.25994H45.2706C45.2905 6.55256 45.3743 6.79687 45.522 6.9929C45.6726 7.18608 45.8729 7.33239 46.1229 7.43182C46.3757 7.52841 46.6612 7.5767 46.9794 7.5767C47.2919 7.5767 47.5632 7.53125 47.7933 7.44034C48.0263 7.34943 48.2067 7.22301 48.3345 7.06108C48.4624 6.89915 48.5263 6.71307 48.5263 6.50284C48.5263 6.30682 48.468 6.14205 48.3516 6.00852C48.2379 5.875 48.0703 5.76136 47.8487 5.66761C47.63 5.57386 47.3615 5.48864 47.0433 5.41193L46.093 5.1733C45.3572 4.99432 44.7763 4.71449 44.3501 4.33381C43.924 3.95312 43.7124 3.44034 43.7152 2.79545C43.7124 2.26705 43.853 1.8054 44.1371 1.41051C44.424 1.01562 44.8175 0.707386 45.3175 0.485795C45.8175 0.264204 46.3857 0.153409 47.022 0.153409C47.6697 0.153409 48.2351 0.264204 48.718 0.485795C49.2038 0.707386 49.5817 1.01562 49.8516 1.41051C50.1214 1.8054 50.2607 2.26278 50.2692 2.78267H48.5007ZM51.6296 9V0.272727H53.4748V7.47869H57.2163V9H51.6296ZM60.2834 0.272727V9H58.4382V0.272727H60.2834ZM61.8015 0.272727H64.0771L66.4805 6.13636H66.5827L68.9862 0.272727H71.2617V9H69.4719V3.3196H69.3995L67.141 8.95739H65.9222L63.6637 3.2983H63.5913V9H61.8015V0.272727ZM74.2862 9H72.3089L75.3217 0.272727H77.6996L80.7081 9H78.7308L76.5447 2.26705H76.4766L74.2862 9ZM74.1626 5.5696H78.8331V7.00994H74.1626V5.5696Z" fill="black"/>
<path d="M1.78551 24.1108C1.50426 24.1108 1.26278 24.0114 1.06108 23.8125C0.862216 23.6108 0.762784 23.3693 0.762784 23.0881C0.762784 22.8097 0.862216 22.571 1.06108 22.3722C1.26278 22.1733 1.50426 22.0739 1.78551 22.0739C2.05824 22.0739 2.29688 22.1733 2.50142 22.3722C2.70597 22.571 2.80824 22.8097 2.80824 23.0881C2.80824 23.2756 2.75994 23.4474 2.66335 23.6037C2.5696 23.7571 2.44602 23.8807 2.29261 23.9744C2.1392 24.0653 1.97017 24.1108 1.78551 24.1108ZM7.42649 24H4.33274V15.2727H7.45206C8.3299 15.2727 9.08558 15.4474 9.71911 15.7969C10.3526 16.1435 10.8398 16.642 11.1808 17.2926C11.5245 17.9432 11.6964 18.7216 11.6964 19.6278C11.6964 20.5369 11.5245 21.3182 11.1808 21.9716C10.8398 22.625 10.3498 23.1264 9.71058 23.4759C9.07422 23.8253 8.31286 24 7.42649 24ZM6.17791 22.419H7.34979C7.89524 22.419 8.35405 22.3224 8.72621 22.1293C9.10121 21.9332 9.38246 21.6307 9.56996 21.2216C9.7603 20.8097 9.85547 20.2784 9.85547 19.6278C9.85547 18.983 9.7603 18.456 9.56996 18.0469C9.38246 17.6378 9.10263 17.3366 8.73047 17.1435C8.35831 16.9503 7.8995 16.8537 7.35405 16.8537H6.17791V22.419ZM13.0632 24V15.2727H18.9439V16.794H14.9084V18.8736H18.6413V20.3949H14.9084V22.4787H18.9609V24H13.0632ZM21.9876 15.2727L24.0969 21.9034H24.1779L26.2915 15.2727H28.337L25.3285 24H22.9506L19.9379 15.2727H21.9876Z" fill="#FF0000"/>
</svg>
